<svg width="50" height="30" viewBox="0 0 50 30" fill="none" xmlns="http://www.w3.org/2000/svg">
<rect width="50" height="30" rx="2" fill="#4B4D59"/>
<path fill-rule="evenodd" clip-rule="evenodd" d="M15.341 14.7108V14.2021L15.0977 14.7108H12.9911L12.7265 14.1649V14.7108H8.78878L8.32374 13.6095H7.53447L7.04179 14.7108H5V11.3862L6.49659 8.00002H9.36228L9.76488 8.95954V8.00702H13.2693L14.04 9.62263L14.7943 8.00002H25.858C25.858 8.00002 26.4379 7.99206 26.8198 8.26068L26.8174 8.00002H29.6047V8.36685C29.6047 8.36685 30.1062 8.00002 30.847 8.00002H35.7655L36.1974 8.97368V8.00002H39.3491L39.9211 8.97368V8.00002H42.9343V14.7171H39.8387L39.1114 13.546V14.7108H35.2641L34.7229 13.5112H33.9688L33.4615 14.7108H31.133C31.133 14.7108 30.2647 14.6997 29.6133 14.2337V14.7108H24.9777V13.1436C24.9777 12.9161 24.8034 12.9321 24.8034 12.9321H24.6338V14.7108H15.341Z" fill="white"/>
<path fill-rule="evenodd" clip-rule="evenodd" d="M13.0273 16.1653H19.1184L19.9979 17.1604L20.8971 16.1653H25.5804C25.5804 16.1653 26.0202 16.1763 26.4377 16.3989V16.1653H30.6083C31.1376 16.1653 31.582 16.4298 31.582 16.4298V16.1653H36.9428V16.4093C36.9428 16.4093 37.3247 16.1653 37.8381 16.1653H41.3304V16.4093C41.3304 16.4093 41.7703 16.1653 42.2353 16.1653H44.9774V22.4949C44.9774 22.4949 44.6168 22.903 43.8712 22.903H40.2561V22.7017C40.2561 22.7017 39.9122 22.903 39.3877 22.903H29.7844V21.2669C29.7844 21.1061 29.7147 21.0768 29.5712 21.0768H29.4389V22.903H26.4377V21.0879C26.4377 21.0879 26.1049 21.2669 25.5488 21.2669H24.4696V22.903H20.7704L19.929 21.8762L19.029 22.903H13.0273V16.1653Z" fill="white"/>
<path fill-rule="evenodd" clip-rule="evenodd" d="M32.2256 17.1755H36.0484V18.2007H33.3957V19.0944H35.9739V19.9977H33.3957V20.9381H36.0484V21.938H32.2256V17.1755Z" fill="#0077A6"/>
<path fill-rule="evenodd" clip-rule="evenodd" d="M43.4336 19.0311C44.87 19.1047 44.9903 19.8226 44.9903 20.588C44.9903 21.48 44.2567 21.9594 43.4913 21.9594H41.0352V20.9382H42.9487C43.2736 20.9382 43.7568 20.9382 43.7568 20.481C43.7568 20.2639 43.6721 20.1252 43.3266 20.0888C43.1728 20.0665 42.6048 20.0348 42.5185 20.0334C41.2207 19.9992 40.918 19.3535 40.918 18.5675C40.918 17.6747 41.5456 17.1865 42.3118 17.1865H44.7669V18.207H42.97C42.5612 18.2111 42.1199 18.1587 42.1199 18.6207C42.1199 18.913 42.3378 18.9716 42.6144 18.9986C42.7102 18.9986 43.3481 19.0319 43.4336 19.0311Z" fill="#0077A6"/>
<path fill-rule="evenodd" clip-rule="evenodd" d="M39.0307 19.0311C40.468 19.1047 40.5883 19.8226 40.5883 20.588C40.5883 21.48 39.8555 21.9594 39.0893 21.9594H36.634V20.9382H38.5473C38.8716 20.9382 39.3556 20.9382 39.3556 20.481C39.3556 20.2639 39.2701 20.1252 38.9246 20.0888C38.7707 20.0665 38.202 20.0348 38.1173 20.0334C36.8179 19.9992 36.5176 19.3535 36.5176 18.5675C36.5176 17.6747 37.1442 17.1865 37.9096 17.1865H40.3649V18.207H38.5688C38.1592 18.2111 37.7179 18.1587 37.7179 18.6207C37.7179 18.913 37.9366 18.9716 38.2132 18.9986C38.3081 18.9986 38.946 19.0319 39.0307 19.0311Z" fill="#0077A6"/>
<path fill-rule="evenodd" clip-rule="evenodd" d="M24.7732 19.3511H23.3169V18.2079H24.7779C25.2675 18.2079 25.4219 18.5216 25.4219 18.7554C25.4219 19.0747 25.2515 19.3511 24.7732 19.3511ZM22.1372 21.4911L20.4575 19.5033L22.1372 17.643V21.4911ZM17.6678 20.9381H14.9717V19.9977H17.5506V19.0944H14.9717V18.2007L17.8153 18.2071L18.9536 19.5033L17.6678 20.9381ZM25.167 17.1859H21.0637L19.7237 18.6635L18.4278 17.1755H13.8188V21.938H18.2779L19.6818 20.3645L21.0525 21.9492H23.2962V20.332H24.8691C25.4751 20.332 26.5811 20.3115 26.5811 18.642C26.5811 17.4513 25.7413 17.1859 25.167 17.1859Z" fill="#0077A6"/>
<path fill-rule="evenodd" clip-rule="evenodd" d="M29.8059 19.2871H28.3496V18.2081H29.8104C30.2994 18.2081 30.4538 18.5217 30.4538 18.7554C30.4538 19.0739 30.2842 19.2871 29.8059 19.2871ZM30.8151 19.7799C31.4538 19.4614 31.6234 19.036 31.6234 18.4616C31.6234 17.4419 30.7946 17.1868 30.2202 17.1868H27.1802V21.9492H28.3496V20.2687H29.8803C30.2842 20.2687 30.4436 20.6728 30.4538 21.0768L30.4849 21.9492H31.6234L31.5805 20.9707C31.5805 20.2047 31.369 19.8432 30.8151 19.7799Z" fill="#0077A6"/>
<path fill-rule="evenodd" clip-rule="evenodd" d="M27.6484 13.7221H28.8179V8.9541H27.6484V13.7221Z" fill="#0077A6"/>
<path fill-rule="evenodd" clip-rule="evenodd" d="M18.0767 8.95947H21.898V9.98468H19.2461V10.8783H21.8235V11.7816H19.2461V12.7221H21.898V13.7219H18.0767V8.95947Z" fill="#0077A6"/>
<path fill-rule="evenodd" clip-rule="evenodd" d="M25.2178 11.0598H23.7616V9.98061H25.2233C25.7115 9.98061 25.8668 10.2944 25.8668 10.5281C25.8668 10.8474 25.6964 11.0598 25.2178 11.0598ZM26.2281 11.5526C26.8666 11.2349 27.0362 10.8087 27.0362 10.2343C27.0362 9.21378 26.2066 8.95947 25.6331 8.95947H22.5923V13.7219H23.7616V12.0422H25.2923C25.6964 12.0422 25.8565 12.4455 25.8668 12.8496L25.8985 13.7219H27.0362L26.9942 12.7434C26.9942 11.978 26.7809 11.6167 26.2281 11.5526Z" fill="#0077A6"/>
<path fill-rule="evenodd" clip-rule="evenodd" d="M7.14131 11.631L7.83855 9.96646L8.56521 11.631H7.14131ZM15.3797 8.95947L13.9449 12.1539L12.5146 8.95947H10.6813V13.546L8.6405 8.95947H7.09302L5.00928 13.7219H6.24294L6.6992 12.6587H9.03334L9.49594 13.7219H11.8499V10.1866L13.4132 13.7219H14.4764L16.0761 10.2453V13.7219H17.2455V8.95947H15.3797Z" fill="#0077A6"/>
<path fill-rule="evenodd" clip-rule="evenodd" d="M33.7015 11.6335L34.3979 9.96874L35.1315 11.6335H33.7015ZM40.8837 8.95703V12.2546L38.9117 8.95703H37.1836V13.4296L35.1917 8.95947H33.6444L32.0337 12.6484C32.0337 12.6484 31.3532 12.6484 31.2842 12.6318C31.0029 12.5739 30.5623 12.3751 30.5569 11.5352V11.1897C30.5569 10.0735 31.1631 9.99183 31.9402 9.99183H32.662V8.95703H31.1353C30.6036 8.95703 29.4468 9.36272 29.4081 11.3188C29.3811 12.6374 29.9555 13.7243 31.2524 13.7243H32.7943L33.2507 12.6611H35.5839L36.0467 13.7243H38.3538V10.2367L40.4582 13.7243H42.053V8.95703H40.8837Z" fill="#0077A6"/>
</svg>
