<svg width="50" height="30" viewBox="0 0 50 30" fill="none" xmlns="http://www.w3.org/2000/svg">
<rect width="50" height="30" rx="2" fill="#4B4D59"/>
<path d="M29.5681 15.449C29.5718 14.5924 29.2506 13.7346 28.6043 13.0882C27.9566 12.4405 27.0967 12.1196 26.2384 12.1248C26.2343 12.1248 26.2303 12.1245 26.226 12.1245C24.3622 12.1245 22.8838 13.6026 22.8838 15.4669C22.8838 17.3129 24.3804 18.809 26.226 18.809C28.0904 18.809 29.5686 17.3307 29.5686 15.4669C29.5686 15.4608 29.5681 15.455 29.5681 15.449Z" fill="#F26E21"/>
<path d="M22.2618 16.8807C21.7623 17.3808 21.3012 17.5761 20.8046 17.5867C19.5947 17.5759 18.7052 16.6799 18.7052 15.4025C18.7052 14.7594 18.9487 14.2324 19.3344 13.7822C19.696 13.4388 20.162 13.2169 20.6978 13.2169C21.2762 13.2169 21.7264 13.4097 22.2402 13.924V12.4457C21.7264 12.1887 21.2761 12.0601 20.6978 12.0601C19.8808 12.1185 19.1104 12.4486 18.5194 12.967C18.3491 13.1202 18.1859 13.2894 18.0475 13.483C17.6159 14.0425 17.355 14.7275 17.355 15.467C17.355 17.3307 18.8338 18.7448 20.6977 18.7448C20.7068 18.7448 20.7158 18.744 20.7246 18.7439C20.7371 18.7441 20.7495 18.7448 20.7619 18.7448C21.276 18.7448 21.7264 18.6165 22.3048 18.3593L22.2618 16.8807C22.2401 16.9024 22.2833 16.9225 22.2618 16.9431V16.8807Z" fill="#E7E8E3"/>
<path d="M33.7881 12.9806L32.3324 16.5595L30.6611 12.3169H29.3115L31.9467 18.8089H32.6537L35.4177 12.3169H34.0681L33.7881 12.9806Z" fill="#E7E8E3"/>
<path d="M35.9316 15.1452V18.6164H39.4028H39.4668V17.5876H38.3741H37.2172V16.4309V15.8525H39.4028V14.7595H37.2172V13.4098H39.4668V12.3169H35.9316V15.1452Z" fill="#E7E8E3"/>
<path fill-rule="evenodd" clip-rule="evenodd" d="M5.07861 12.3169H6.8787C8.93515 12.3169 10.2852 13.6024 10.2851 15.4669C10.2851 16.4309 9.83497 17.3306 9.12804 17.9091C8.54955 18.359 7.84261 18.6164 6.87861 18.6164H5.07861V12.3169ZM6.68564 17.5876C7.45701 17.5876 7.97124 17.3949 8.35692 17.0737C8.80697 16.6877 9.06404 16.0452 8.99977 15.4667C8.99977 14.888 8.74252 14.3092 8.29266 13.9237C7.90688 13.5382 7.39266 13.4097 6.62128 13.4097H6.29995V17.5876H6.68564Z" fill="#E7E8E3"/>
<path d="M10.8643 12.3167H12.0855V18.6159H10.8643V12.3167Z" fill="#E7E8E3"/>
<path d="M15.1704 14.7597C14.3992 14.5026 14.2061 14.3096 14.2061 13.9884C14.2061 13.6027 14.5918 13.2814 15.1061 13.2814C15.4917 13.2814 15.8131 13.41 16.1345 13.7957L16.7774 12.9601C16.263 12.51 15.6205 12.2532 14.9134 12.2532C13.8205 12.2532 12.9205 13.0246 12.9205 14.0526C12.9205 14.9527 13.3066 15.3383 14.4634 15.7883C14.9776 15.9808 15.1705 16.0454 15.2993 16.1739C15.5559 16.3022 15.6847 16.5596 15.6847 16.8164C15.6847 17.3307 15.2993 17.7165 14.7205 17.7165C14.1414 17.7165 13.6277 17.3951 13.3705 16.8808L12.5991 17.6522C13.1779 18.4878 13.8849 18.8734 14.7848 18.8734C16.0702 18.8734 16.9697 18.0378 16.9697 16.8164C16.9699 15.7239 16.5845 15.274 15.1704 14.7597Z" fill="#E7E8E3"/>
<path fill-rule="evenodd" clip-rule="evenodd" d="M44.4165 14.1812C44.4165 15.1451 43.9021 15.7881 42.9383 15.9806L44.9306 18.6164H43.4521L41.717 16.1093H41.524V18.6164H40.3027V12.3169H42.1669C43.5808 12.3169 44.4165 13.0244 44.4165 14.1812ZM41.5241 15.2092H41.9095C42.681 15.2092 43.131 14.8881 43.131 14.2456C43.131 13.6024 42.6809 13.2812 41.9095 13.2812H41.5241V15.2092Z" fill="#E7E8E3"/>
</svg>
