<svg width="50" height="30" viewBox="0 0 50 30" fill="none" xmlns="http://www.w3.org/2000/svg">
<rect width="50" height="30" rx="2" fill="#4B4D59"/>
<path fill-rule="evenodd" clip-rule="evenodd" d="M43.7466 12.6135V11.4807H43.3252V11.3293H44.3399V11.4807H43.9174V12.6135H43.7466Z" fill="white"/>
<path fill-rule="evenodd" clip-rule="evenodd" d="M44.5083 12.6135V11.3293H44.7612L45.0675 12.238C45.095 12.3219 45.1158 12.3864 45.1269 12.4268C45.1436 12.3807 45.1665 12.3117 45.1971 12.2215L45.5073 11.3293H45.7354V12.6135H45.5718V11.5397L45.1963 12.6135H45.0428L44.672 11.527V12.6135H44.5083Z" fill="white"/>
<path fill-rule="evenodd" clip-rule="evenodd" d="M33.771 12.2422C33.6383 11.9869 33.4418 11.7785 33.1873 11.619C32.9275 11.4579 32.6212 11.3463 32.2669 11.2808C31.9124 11.2161 31.4963 11.1824 31.0183 11.1824H28.8057C28.5771 11.1824 28.3502 11.3634 28.2996 11.5855L26.803 18.069C26.7512 18.2912 26.8963 18.4724 27.123 18.4724H28.1851C28.4134 18.4724 28.6406 18.2912 28.693 18.069L29.0563 16.4977C29.1069 16.2765 29.3357 16.0941 29.5624 16.0941H29.8669C31.1618 16.0941 32.1692 15.8294 32.8914 15.2979C33.6118 14.7653 33.9724 14.0663 33.9724 13.199C33.9724 12.8167 33.9057 12.4988 33.771 12.2422ZM31.4822 14.3618C31.1626 14.5939 30.7187 14.7112 30.1449 14.7112H29.882C29.6536 14.7112 29.5096 14.5292 29.561 14.3075L29.879 12.9314C29.9302 12.7104 30.1579 12.5286 30.3857 12.5286H30.7328C31.139 12.5286 31.4453 12.5973 31.6518 12.7349C31.8585 12.8708 31.9606 13.0808 31.9606 13.3639C31.9606 13.7957 31.8012 14.1281 31.4822 14.3618Z" fill="white"/>
<path fill-rule="evenodd" clip-rule="evenodd" d="M36.6765 18.4725H38.0088C38.2363 18.4725 38.4649 18.2912 38.5159 18.069L39.2884 14.7312C39.3075 14.6527 39.3233 14.5614 39.3331 14.4557C39.3447 14.3514 39.3522 14.2665 39.3522 14.2027C39.3522 13.7284 39.1496 13.3792 38.7476 13.1547C38.3443 12.929 37.7157 12.8167 36.8563 12.8167C36.4284 12.8167 36.001 12.8492 35.5725 12.9149C35.1425 12.9814 34.8257 13.0406 34.62 13.0927L34.4404 14.0029C34.3967 14.2263 34.4335 14.409 34.5224 14.409C34.6963 14.3449 34.9582 14.2637 35.3069 14.1651C35.6576 14.067 35.9765 14.0176 36.2643 14.0176C36.6906 14.0176 37.0106 14.0635 37.2247 14.1547C37.4388 14.247 37.5467 14.4065 37.5467 14.6331C37.5467 14.6872 37.5398 14.738 37.5308 14.7833C37.5194 14.8274 37.5114 14.8604 37.5075 14.8804C36.9008 14.9161 36.3361 14.9716 35.8135 15.0468C35.2941 15.1216 34.8451 15.2443 34.4678 15.4139C34.0661 15.5947 33.7625 15.8347 33.5575 16.1372C33.3531 16.44 33.25 16.8076 33.25 17.2423C33.25 17.6539 33.3945 17.989 33.6829 18.2449C33.9714 18.5016 34.3445 18.6292 34.7994 18.6292C35.0827 18.6292 35.3039 18.609 35.4643 18.5696C35.6235 18.5294 35.7953 18.471 35.9765 18.3951C36.11 18.3361 36.2561 18.2543 36.4125 18.151C36.5678 18.049 36.7025 17.9598 36.8129 17.887L36.6765 18.4725ZM37.0088 17.04C36.8371 17.1643 36.6512 17.2663 36.4549 17.3467C36.259 17.427 36.0745 17.4676 35.9024 17.4676C35.6386 17.4676 35.4373 17.4294 35.2992 17.3516C35.1618 17.2761 35.0924 17.1439 35.0924 16.9551C35.0924 16.7408 35.1435 16.5674 35.2492 16.437C35.3522 16.3074 35.5043 16.2067 35.7002 16.1349C35.8925 16.0663 36.1247 16.0151 36.3975 15.978C36.671 15.9429 36.9635 15.9121 37.2767 15.8855L37.0088 17.04Z" fill="white"/>
<path fill-rule="evenodd" clip-rule="evenodd" d="M42.7398 11.2407L41.2268 18.0699C41.1759 18.2917 40.9463 18.4739 40.7192 18.4739H39.7725C39.5455 18.4739 39.4 18.2917 39.4519 18.0699L40.8721 11.6439C40.9233 11.4219 41.1521 11.2407 41.3796 11.2407H42.7398Z" fill="white"/>
<path fill-rule="evenodd" clip-rule="evenodd" d="M15.0702 12.2538C14.9363 11.9987 14.7414 11.7905 14.4867 11.6315C14.2263 11.4703 13.9204 11.3584 13.5661 11.2927C13.2106 11.2276 12.7951 11.1948 12.3173 11.1948H10.1053C9.87689 11.1948 9.64944 11.3752 9.59767 11.5976L8.10218 18.0809C8.05081 18.3035 8.19512 18.4846 8.42297 18.4846H9.48512C9.71277 18.4846 9.941 18.3035 9.99159 18.0811L10.3557 16.5095C10.4071 16.2884 10.6345 16.1066 10.8628 16.1066H11.1657C12.4608 16.1066 13.4685 15.8417 14.1898 15.3095C14.911 14.7782 15.2718 14.0787 15.2718 13.2109C15.2718 12.8291 15.2051 12.5107 15.0702 12.2538ZM12.781 14.3731C12.4618 14.6058 12.0177 14.7235 11.4443 14.7235H11.1812C10.953 14.7235 10.809 14.5411 10.859 14.3193L11.1783 12.9431C11.2302 12.7215 11.4581 12.5401 11.6849 12.5401H12.0326C12.4381 12.5401 12.7451 12.6091 12.9512 12.7468C13.1571 12.8829 13.2604 13.0927 13.2604 13.3772C13.2604 13.8076 13.0998 14.1399 12.781 14.3731Z" fill="white"/>
<path fill-rule="evenodd" clip-rule="evenodd" d="M17.9764 18.4848H19.3083C19.5358 18.4848 19.7642 18.3035 19.8156 18.0811L20.5872 14.7433C20.6072 14.6644 20.6234 14.5735 20.6323 14.468C20.6442 14.3639 20.6509 14.2792 20.6509 14.2148C20.6509 13.7405 20.4487 13.3917 20.0466 13.1666C19.6446 12.9407 19.0138 12.8284 18.1544 12.8284C17.7278 12.8284 17.3001 12.8613 16.8717 12.9272C16.4405 12.9933 16.1234 13.0527 15.9201 13.105L15.7395 14.0148C15.6958 14.2378 15.7327 14.4209 15.8219 14.4209C15.9964 14.357 16.2576 14.2748 16.6068 14.1772C16.9568 14.0788 17.2754 14.0293 17.5638 14.0293C17.9899 14.0293 18.3091 14.0754 18.5246 14.1666C18.7387 14.259 18.8466 14.4182 18.8466 14.6456C18.8466 14.6997 18.8389 14.7499 18.8305 14.7944C18.8183 14.8403 18.8103 14.8723 18.807 14.8925C18.1999 14.928 17.6362 14.9831 17.1136 15.0586C16.593 15.1335 16.145 15.257 15.7674 15.4258C15.3658 15.607 15.0623 15.8474 14.8566 16.1493C14.6513 16.4519 14.5483 16.8199 14.5483 17.2543C14.5483 17.6664 14.6932 18.0013 14.9828 18.2568C15.2709 18.5131 15.6436 18.6421 16.0987 18.6421C16.3817 18.6421 16.6036 18.6209 16.7634 18.5815C16.923 18.5407 17.0942 18.4839 17.2754 18.4068C17.4091 18.348 17.5554 18.2666 17.7121 18.1627C17.8676 18.0599 18.0021 17.9725 18.1111 17.8986L17.9764 18.4848ZM18.3079 17.0521C18.135 17.1762 17.9503 17.2786 17.7542 17.3588C17.557 17.4392 17.374 17.4792 17.2005 17.4792C16.9385 17.4792 16.7372 17.4405 16.5983 17.3641C16.4607 17.2882 16.3927 17.1554 16.3927 16.9662C16.3927 16.7527 16.4428 16.579 16.5472 16.4492C16.6517 16.3201 16.8032 16.2188 16.9999 16.1464C17.1925 16.0788 17.4246 16.026 17.6972 15.9901C17.9703 15.9548 18.2634 15.9239 18.5748 15.8978L18.3079 17.0521Z" fill="white"/>
<path fill-rule="evenodd" clip-rule="evenodd" d="M26.0433 12.8208C25.8167 12.8208 25.5163 13.003 25.3792 13.2245L23.5049 16.4369L22.9908 13.2296C22.9396 13.0071 22.7114 12.8255 22.4837 12.8255H21.5376C21.3094 12.8255 21.1645 13.0071 21.2169 13.2296L22.0365 18.5267C22.0514 18.6414 22.0663 18.7386 22.0806 18.8192L21.06 20.5269C20.9233 20.7488 20.9965 20.9304 21.2249 20.9304H22.3223C22.5504 20.9304 22.848 20.7488 22.9853 20.5269L27.5557 12.8208H26.0433Z" fill="white"/>
</svg>
