<svg width="50" height="30" viewBox="0 0 50 30" fill="none" xmlns="http://www.w3.org/2000/svg">
<rect width="50" height="30" rx="2" fill="#4B4D59"/>
<path fill-rule="evenodd" clip-rule="evenodd" d="M23.016 19.5499H20.5898L22.1065 10.2302H24.5327L23.016 19.5499Z" fill="white"/>
<path fill-rule="evenodd" clip-rule="evenodd" d="M18.5487 10.2302L16.2353 16.6402L15.9615 15.2599V15.2604L15.1457 11.0694C15.1457 11.0694 15.0466 10.2302 13.9947 10.2302H10.1701L10.126 10.3882C10.126 10.3882 11.2955 10.631 12.6636 11.4534L14.7712 19.5499H17.2996L21.1606 10.2302H18.5487Z" fill="white"/>
<path fill-rule="evenodd" clip-rule="evenodd" d="M34.9641 16.2536L36.2387 12.7651L36.9565 16.2536H34.9641ZM37.6339 19.5499H39.8616L37.9193 10.2302H35.9689C35.0678 10.2302 34.8481 10.9245 34.8481 10.9245L31.23 19.5499H33.759L34.2641 18.1658H37.3493L37.6339 19.5499Z" fill="white"/>
<path fill-rule="evenodd" clip-rule="evenodd" d="M31.419 12.4712L31.7647 10.4698C31.7647 10.4698 30.6966 10.0637 29.583 10.0637C28.3787 10.0637 25.5193 10.5899 25.5193 13.149C25.5193 15.5567 28.876 15.5867 28.876 16.8507C28.876 18.1151 25.865 17.8893 24.8719 17.0917L24.5107 19.1836C24.5107 19.1836 25.5944 19.7102 27.2495 19.7102C28.9053 19.7102 31.4036 18.8528 31.4036 16.5199C31.4036 14.0969 28.0174 13.8707 28.0174 12.8175C28.0174 11.7637 30.3811 11.8991 31.419 12.4712Z" fill="white"/>
<path fill-rule="evenodd" clip-rule="evenodd" d="M15.9615 15.2604L15.1455 11.0693C15.1455 11.0693 15.0466 10.2302 13.9947 10.2302H10.1701L10.126 10.3882C10.126 10.3882 11.9636 10.7691 13.7263 12.1958C15.4117 13.5602 15.9615 15.2604 15.9615 15.2604Z" fill="#FFA61F"/>
</svg>
