<svg width="50" height="30" viewBox="0 0 50 30" fill="none" xmlns="http://www.w3.org/2000/svg">
<rect width="50" height="30" rx="2" fill="#4B4D59"/>
<path d="M7.06543 18.4576L7.27151 17.515H7.92712L8.09097 16.7627L9.63147 15.8865L9.27089 17.5151H10.0904L9.88428 18.4577H9.0602L8.62474 20.4271C8.54662 20.7841 8.50762 20.9877 8.50762 21.0378C8.50762 21.1352 8.54039 21.2112 8.60593 21.2657C8.67147 21.3203 8.79008 21.3476 8.96178 21.3476C9.02108 21.3476 9.16935 21.3372 9.40658 21.3166L9.19589 22.2593C8.96478 22.3035 8.72766 22.3256 8.4842 22.3256C8.00962 22.3256 7.66485 22.2394 7.44943 22.0667C7.23412 21.8941 7.12635 21.6544 7.12635 21.3476C7.12635 21.2031 7.18405 20.8697 7.29955 20.3474L7.71631 18.4576H7.06543Z" fill="white"/>
<path d="M10.8862 17.5152H12.141L11.9396 18.4268C12.4079 17.7454 12.9151 17.4045 13.4614 17.4045C13.6549 17.4045 13.8625 17.4502 14.0842 17.5417L13.5691 18.5817C13.4474 18.5405 13.3178 18.5197 13.1805 18.5197C12.9495 18.5197 12.7146 18.6023 12.4758 18.7676C12.237 18.9328 12.0504 19.1534 11.9162 19.4293C11.782 19.7052 11.6493 20.1425 11.5183 20.7415L11.1904 22.2152H9.84668L10.8862 17.5152Z" fill="white"/>
<path fill-rule="evenodd" clip-rule="evenodd" d="M14.2387 18.741L15.5498 18.8473C15.5997 18.6763 15.6942 18.5441 15.8331 18.4511C15.9719 18.3582 16.1615 18.3117 16.4019 18.3117C16.6298 18.3117 16.8015 18.3575 16.917 18.4489C17.0325 18.5405 17.0903 18.654 17.0903 18.7896C17.0903 18.8959 17.0622 19.0376 17.006 19.2146C16.7907 19.2854 16.3629 19.3459 15.723 19.3961C14.9645 19.4522 14.4377 19.6145 14.1427 19.8829C13.8477 20.1514 13.7002 20.5098 13.7002 20.9583C13.7002 21.3596 13.8344 21.6877 14.1029 21.943C14.3714 22.1983 14.7117 22.3258 15.1237 22.3258C15.3827 22.3258 15.6403 22.2705 15.8963 22.1598C16.1522 22.0491 16.3785 21.8906 16.5752 21.684C16.5877 21.867 16.6205 22.044 16.6735 22.2152H17.9799C17.905 21.9703 17.8675 21.7475 17.8675 21.5468C17.8675 21.3227 17.9331 20.9302 18.0643 20.3697C18.2234 19.6911 18.3163 19.2722 18.3428 19.1128C18.3693 18.9535 18.3826 18.803 18.3826 18.6614C18.3826 18.3103 18.2296 18.0131 17.9237 17.7697C17.6177 17.5263 17.1448 17.4045 16.505 17.4045C15.89 17.4045 15.396 17.5226 15.023 17.7585C14.6499 17.9946 14.3886 18.3221 14.2387 18.741ZM16.505 20.082C16.6392 20.0644 16.7468 20.0451 16.828 20.0245L16.7905 20.1925C16.7219 20.5023 16.6431 20.7303 16.5541 20.8762C16.4652 21.0223 16.3308 21.1417 16.1514 21.2347C15.9719 21.3276 15.7807 21.3741 15.5778 21.3741C15.3936 21.3741 15.2454 21.3232 15.133 21.2215C15.0207 21.1197 14.9645 20.9951 14.9645 20.8475C14.9645 20.6676 15.0377 20.5245 15.1845 20.4183C15.3906 20.2708 15.8308 20.1588 16.505 20.082Z" fill="white"/>
<path d="M20.0454 17.5151H21.3189L21.1878 18.1258C21.5062 17.8662 21.8035 17.6811 22.0798 17.5705C22.3561 17.4598 22.6471 17.4045 22.9532 17.4045C23.362 17.4045 23.6842 17.5152 23.9201 17.7364C24.1557 17.9577 24.2735 18.2513 24.2735 18.6171C24.2735 18.7825 24.2219 19.0952 24.119 19.5554L23.5338 22.2152H22.1899L22.7799 19.5465C22.8673 19.1483 22.9111 18.9109 22.9111 18.834C22.9111 18.6718 22.8603 18.5442 22.7587 18.4513C22.6574 18.3584 22.5161 18.3119 22.3351 18.3119C22.1383 18.3119 21.9198 18.3902 21.6794 18.5464C21.4391 18.703 21.2502 18.9093 21.1129 19.166C21.013 19.349 20.9007 19.7222 20.7757 20.2857L20.3496 22.2152H19.0059L20.0454 17.5151Z" fill="white"/>
<path d="M24.6714 20.9007L25.9732 20.706C26.0885 20.9657 26.2322 21.1493 26.404 21.257C26.5756 21.3648 26.8098 21.4184 27.1062 21.4184C27.4122 21.4184 27.6573 21.3536 27.8415 21.2238C27.9694 21.1353 28.0333 21.0275 28.0333 20.9007C28.0333 20.8152 28.0006 20.7385 27.935 20.6705C27.8664 20.6057 27.6806 20.526 27.3778 20.4317C26.5661 20.1779 26.0636 19.9773 25.8701 19.8297C25.5673 19.5995 25.416 19.2986 25.416 18.9269C25.416 18.5552 25.5627 18.2352 25.8562 17.9666C26.265 17.5919 26.8722 17.4045 27.6776 17.4045C28.3174 17.4045 28.8013 17.5152 29.129 17.7364C29.4567 17.9577 29.6643 18.2572 29.7519 18.6348L28.5109 18.8383C28.4454 18.6674 28.3392 18.539 28.1927 18.4534C27.9928 18.3383 27.7525 18.2808 27.4715 18.2808C27.1907 18.2808 26.9885 18.3251 26.8652 18.4136C26.7418 18.5021 26.6802 18.6038 26.6802 18.7189C26.6802 18.837 26.7427 18.9344 26.8675 19.011C26.9455 19.0582 27.1968 19.1408 27.6213 19.2589C28.2769 19.4388 28.7154 19.6159 28.937 19.7899C29.2492 20.0348 29.4053 20.3299 29.4053 20.6751C29.4053 21.1206 29.207 21.507 28.8107 21.8346C28.4142 22.1621 27.8555 22.3258 27.1344 22.3258C26.4163 22.3258 25.8615 22.2012 25.4697 21.9518C25.0781 21.7025 24.812 21.3522 24.6714 20.9007Z" fill="white"/>
<path d="M33.643 17.515L33.437 18.4444H32.4865L31.653 22.215H30.3091L31.1426 18.4444H30.3935L30.5995 17.515H31.3488L31.4565 17.0326C31.5438 16.6374 31.6265 16.3703 31.7045 16.2316C31.8108 16.0428 31.9692 15.8931 32.1798 15.7825C32.3906 15.6717 32.666 15.6165 33.0063 15.6165C33.4184 15.6165 33.8522 15.6873 34.3081 15.8289L34.0458 16.7361C33.7242 16.633 33.4636 16.5812 33.264 16.5812C33.111 16.5812 32.997 16.627 32.9221 16.7184C32.872 16.7775 32.8205 16.9323 32.7676 17.1831L32.6926 17.515H33.643Z" fill="white"/>
<path fill-rule="evenodd" clip-rule="evenodd" d="M34.8416 20.259H38.2129C38.2753 20.0142 38.3066 19.7384 38.3065 19.4314C38.3065 18.7912 38.1269 18.2933 37.768 17.9378C37.409 17.5823 36.9251 17.4045 36.3164 17.4045C35.3613 17.4045 34.626 17.7439 34.111 18.4223C33.7333 18.9239 33.5444 19.4963 33.5444 20.1394C33.5444 20.7973 33.7536 21.3262 34.1719 21.7259C34.5902 22.1257 35.1333 22.3256 35.8014 22.3256C36.2883 22.3256 36.7275 22.2113 37.1195 21.9827C37.5111 21.7541 37.8242 21.4112 38.0583 20.9538L36.8549 20.7635C36.6052 21.2001 36.2571 21.4184 35.8108 21.4184C35.5391 21.4184 35.3089 21.3227 35.12 21.1309C34.9312 20.9391 34.8369 20.6869 34.8369 20.3741C34.8369 20.3475 34.8384 20.3092 34.8416 20.259ZM37.0844 19.3563C37.0844 19.3857 37.0828 19.4286 37.0797 19.4846H34.9773C35.0553 19.0982 35.2045 18.8061 35.4245 18.6083C35.6445 18.4107 35.8934 18.3118 36.1714 18.3118C36.4492 18.3118 36.6708 18.3988 36.8362 18.5729C37.0017 18.747 37.0844 19.0082 37.0844 19.3563Z" fill="white"/>
<path d="M39.6694 17.5152H40.9242L40.7228 18.4268C41.1911 17.7454 41.6984 17.4045 42.2445 17.4045C42.438 17.4045 42.6456 17.4502 42.8674 17.5417L42.3523 18.5817C42.2305 18.5405 42.101 18.5197 41.9637 18.5197C41.7326 18.5197 41.4978 18.6023 41.2589 18.7676C41.0202 18.9328 40.8335 19.1534 40.6994 19.4293C40.5651 19.7052 40.4325 20.1425 40.3013 20.7415L39.9737 22.2152H38.6299L39.6694 17.5152Z" fill="white"/>
<path d="M13.7237 15.6186H12.0523L11.7304 11.6637L9.72481 15.6186H8.07815L7.25488 9.40527H8.83334L9.29142 13.5709L11.3404 9.40527H12.956L13.179 13.5709L15.2156 9.40527H16.9984L13.7237 15.6186Z" fill="white"/>
<path fill-rule="evenodd" clip-rule="evenodd" d="M20.3843 7.04175H18.6076L18.2734 8.56286H20.05L20.3843 7.04175ZM19.8643 9.40529H18.0877L16.7134 15.6186H18.4901L19.8643 9.40529Z" fill="white"/>
<path d="M21.5109 9.40523H23.1698L22.9036 10.6105C23.5227 9.70949 24.1933 9.25903 24.9155 9.25903C25.1713 9.25903 25.4457 9.31961 25.7388 9.44042L25.0578 10.8153C24.8968 10.7606 24.7256 10.7334 24.5439 10.7334C24.2385 10.7334 23.928 10.8427 23.6124 11.061C23.2966 11.2795 23.0501 11.571 22.8726 11.9357C22.6951 12.3005 22.5198 12.8786 22.3464 13.6704L21.9132 15.6187H20.1367L21.5109 9.40523Z" fill="white"/>
<path fill-rule="evenodd" clip-rule="evenodd" d="M27.1132 13.0323H31.5701C31.6526 12.7087 31.6939 12.344 31.6939 11.9382C31.6939 11.0919 31.4566 10.4337 30.9821 9.96354C30.5074 9.4937 29.8679 9.25854 29.0631 9.25854C27.8003 9.25854 26.8284 9.70716 26.1475 10.6043C25.648 11.2675 25.3984 12.0241 25.3984 12.8744C25.3984 13.7441 25.6748 14.4432 26.2279 14.9717C26.7809 15.5003 27.499 15.7645 28.3822 15.7645C29.0259 15.7645 29.6066 15.6135 30.1246 15.3112C30.6426 15.0089 31.0562 14.5554 31.3659 13.9509L29.7749 13.6992C29.4447 14.2766 28.9846 14.5652 28.3946 14.5652C28.0356 14.5652 27.7312 14.4385 27.4816 14.185C27.2317 13.9314 27.1069 13.5979 27.1069 13.1844C27.1069 13.1494 27.109 13.0988 27.1132 13.0323ZM30.0782 11.8389C30.0782 11.8779 30.0761 11.9344 30.0721 12.0085L27.2926 12.0086C27.3957 11.4977 27.5927 11.1115 27.8838 10.8502C28.1747 10.5889 28.5038 10.4582 28.8711 10.4582C29.2383 10.4582 29.5314 10.5734 29.7502 10.8033C29.9689 11.0335 30.0782 11.3787 30.0782 11.8389Z" fill="white"/>
<path d="M33.7046 9.65015V14.6738L37.6158 12.1618L33.7046 9.65015Z" fill="#73AADC"/>
<path d="M39.02 9.65015V14.6738L42.9312 12.1618L39.02 9.65015Z" fill="#73AADC"/>
</svg>
